<?xml version="1.0" encoding="UTF-8" standalone="no"?>
<!DOCTYPE svg PUBLIC "-//W3C//DTD SVG 1.1//EN" "http://www.w3.org/Graphics/SVG/1.1/DTD/svg11.dtd">
<svg width="100%" height="100%" viewBox="0 0 1421 366" version="1.1" xmlns="http://www.w3.org/2000/svg" xmlns:xlink="http://www.w3.org/1999/xlink" xml:space="preserve" xmlns:serif="http://www.serif.com/" style="fill-rule:evenodd;clip-rule:evenodd;stroke-linejoin:round;stroke-miterlimit:2;">
    <g transform="matrix(1,0,0,1,-7089.4,-1008.12)">
        <g transform="matrix(5.55556,0,0,5.55556,6750,0)">
            <g transform="matrix(1,0,0,1,65.5873,183.815)">
                <path d="M0,58.081L0,32.876L13.878,20.029L0,0L63.207,0L0,58.081Z" style="fill:white;fill-rule:nonzero;"/>
            </g>
            <g>
                <clipPath id="_clip1">
                    <path d="M65.588,183.815L79.465,203.843L65.588,216.691L65.588,241.896L128.794,183.815L65.588,183.815Z" clip-rule="nonzero"/>
                </clipPath>
                <g clip-path="url(#_clip1)">
                    <g transform="matrix(1,0,0,1,0,-1436.34)">
                        <rect x="65.587" y="1678.1" width="63.207" height="0.136" style="fill:white;"/>
                    </g>
                    <g transform="matrix(1,0,0,1,0,-1436.74)">
                        <rect x="65.587" y="1678.24" width="63.207" height="0.262" style="fill:white;"/>
                    </g>
                    <g transform="matrix(1,0,0,1,0,-1437.26)">
                        <rect x="65.587" y="1678.5" width="63.207" height="0.261" style="fill:white;"/>
                    </g>
                    <g transform="matrix(1,0,0,1,0,-1437.79)">
                        <rect x="65.587" y="1678.76" width="63.207" height="0.261" style="fill:white;"/>
                    </g>
                    <g transform="matrix(1,0,0,1,0,-1438.31)">
                        <rect x="65.587" y="1679.02" width="63.207" height="0.262" style="fill:white;"/>
                    </g>
                    <g transform="matrix(1,0,0,1,0,-1438.84)">
                        <rect x="65.587" y="1679.29" width="63.207" height="0.261" style="fill:white;"/>
                    </g>
                    <g transform="matrix(1,0,0,1,0,-1439.36)">
                        <rect x="65.587" y="1679.55" width="63.207" height="0.261" style="fill:white;"/>
                    </g>
                    <g transform="matrix(1,0,0,1,0,-1439.88)">
                        <rect x="65.587" y="1679.81" width="63.207" height="0.262" style="fill:white;"/>
                    </g>
                    <g transform="matrix(1,0,0,1,0,-1440.4)">
                        <rect x="65.587" y="1680.07" width="63.207" height="0.261" style="fill:white;"/>
                    </g>
                    <g transform="matrix(1,0,0,1,0,-1440.93)">
                        <rect x="65.587" y="1680.33" width="63.207" height="0.261" style="fill:white;"/>
                    </g>
                    <g transform="matrix(1,0,0,1,0,-1441.45)">
                        <rect x="65.587" y="1680.59" width="63.207" height="0.262" style="fill:white;"/>
                    </g>
                    <g transform="matrix(1,0,0,1,0,-1441.97)">
                        <rect x="65.587" y="1680.86" width="63.207" height="0.261" style="fill:white;"/>
                    </g>
                    <g transform="matrix(1,0,0,1,0,-1442.49)">
                        <rect x="65.587" y="1681.12" width="63.207" height="0.261" style="fill:white;"/>
                    </g>
                    <g transform="matrix(1,0,0,1,0,-1443.02)">
                        <rect x="65.587" y="1681.38" width="63.207" height="0.262" style="fill:white;"/>
                    </g>
                    <g transform="matrix(1,0,0,1,0,-1443.54)">
                        <rect x="65.587" y="1681.64" width="63.207" height="0.261" style="fill:white;"/>
                    </g>
                    <g transform="matrix(1,0,0,1,0,-1444.06)">
                        <rect x="65.587" y="1681.9" width="63.207" height="0.261" style="fill:white;"/>
                    </g>
                    <g transform="matrix(1,0,0,1,0,-1444.59)">
                        <rect x="65.587" y="1682.16" width="63.207" height="0.262" style="fill:white;"/>
                    </g>
                    <g transform="matrix(1,0,0,1,0,-1445.11)">
                        <rect x="65.587" y="1682.42" width="63.207" height="0.261" style="fill:white;"/>
                    </g>
                    <g transform="matrix(1,0,0,1,0,-1445.63)">
                        <rect x="65.587" y="1682.69" width="63.207" height="0.261" style="fill:white;"/>
                    </g>
                    <g transform="matrix(1,0,0,1,0,-1446.16)">
                        <rect x="65.587" y="1682.95" width="63.207" height="0.262" style="fill:white;"/>
                    </g>
                    <g transform="matrix(1,0,0,1,0,-1446.68)">
                        <rect x="65.587" y="1683.21" width="63.207" height="0.261" style="fill:white;"/>
                    </g>
                    <g transform="matrix(1,0,0,1,0,-1447.2)">
                        <rect x="65.587" y="1683.47" width="63.207" height="0.261" style="fill:white;"/>
                    </g>
                    <g transform="matrix(1,0,0,1,0,-1447.73)">
                        <rect x="65.587" y="1683.73" width="63.207" height="0.262" style="fill:white;"/>
                    </g>
                    <g transform="matrix(1,0,0,1,0,-1448.25)">
                        <rect x="65.587" y="1683.99" width="63.207" height="0.261" style="fill:white;"/>
                    </g>
                    <g transform="matrix(1,0,0,1,0,-1448.77)">
                        <rect x="65.587" y="1684.26" width="63.207" height="0.261" style="fill:white;"/>
                    </g>
                    <g transform="matrix(1,0,0,1,0,-1449.29)">
                        <rect x="65.587" y="1684.52" width="63.207" height="0.262" style="fill:white;"/>
                    </g>
                    <g transform="matrix(1,0,0,1,0,-1449.82)">
                        <rect x="65.587" y="1684.78" width="63.207" height="0.261" style="fill:white;"/>
                    </g>
                    <g transform="matrix(1,0,0,1,0,-1450.34)">
                        <rect x="65.587" y="1685.04" width="63.207" height="0.261" style="fill:white;"/>
                    </g>
                    <g transform="matrix(1,0,0,1,0,-1450.86)">
                        <rect x="65.587" y="1685.3" width="63.207" height="0.262" style="fill:white;"/>
                    </g>
                    <g transform="matrix(1,0,0,1,0,-1451.39)">
                        <rect x="65.587" y="1685.56" width="63.207" height="0.261" style="fill:white;"/>
                    </g>
                    <g transform="matrix(1,0,0,1,0,-1451.91)">
                        <rect x="65.587" y="1685.83" width="63.207" height="0.261" style="fill:white;"/>
                    </g>
                    <g transform="matrix(1,0,0,1,0,-1452.43)">
                        <rect x="65.587" y="1686.09" width="63.207" height="0.262" style="fill:white;"/>
                    </g>
                    <g transform="matrix(1,0,0,1,0,-1452.96)">
                        <rect x="65.587" y="1686.35" width="63.207" height="0.261" style="fill:white;"/>
                    </g>
                    <g transform="matrix(1,0,0,1,0,-1453.48)">
                        <rect x="65.587" y="1686.61" width="63.207" height="0.261" style="fill:white;"/>
                    </g>
                    <g transform="matrix(1,0,0,1,0,-1454)">
                        <rect x="65.587" y="1686.87" width="63.207" height="0.262" style="fill:white;"/>
                    </g>
                    <g transform="matrix(1,0,0,1,0,-1454.52)">
                        <rect x="65.587" y="1687.13" width="63.207" height="0.261" style="fill:white;"/>
                    </g>
                    <g transform="matrix(1,0,0,1,0,-1455.05)">
                        <rect x="65.587" y="1687.39" width="63.207" height="0.261" style="fill:white;"/>
                    </g>
                    <g transform="matrix(1,0,0,1,0,-1455.57)">
                        <rect x="65.587" y="1687.65" width="63.207" height="0.262" style="fill:white;"/>
                    </g>
                    <g transform="matrix(1,0,0,1,0,-1456.09)">
                        <rect x="65.587" y="1687.92" width="63.207" height="0.261" style="fill:white;"/>
                    </g>
                    <g transform="matrix(1,0,0,1,0,-1456.62)">
                        <rect x="65.587" y="1688.18" width="63.207" height="0.261" style="fill:white;"/>
                    </g>
                    <g transform="matrix(1,0,0,1,0,-1457.14)">
                        <rect x="65.587" y="1688.44" width="63.207" height="0.262" style="fill:white;"/>
                    </g>
                    <g transform="matrix(1,0,0,1,0,-1457.66)">
                        <rect x="65.587" y="1688.7" width="63.207" height="0.261" style="fill:white;"/>
                    </g>
                    <g transform="matrix(1,0,0,1,0,-1458.19)">
                        <rect x="65.587" y="1688.96" width="63.207" height="0.261" style="fill:white;"/>
                    </g>
                    <g transform="matrix(1,0,0,1,0,-1458.71)">
                        <rect x="65.587" y="1689.22" width="63.207" height="0.262" style="fill:white;"/>
                    </g>
                    <g transform="matrix(1,0,0,1,0,-1459.23)">
                        <rect x="65.587" y="1689.49" width="63.207" height="0.261" style="fill:white;"/>
                    </g>
                    <g transform="matrix(1,0,0,1,0,-1459.76)">
                        <rect x="65.587" y="1689.75" width="63.207" height="0.261" style="fill:white;"/>
                    </g>
                    <g transform="matrix(1,0,0,1,0,-1460.28)">
                        <rect x="65.587" y="1690.01" width="63.207" height="0.262" style="fill:white;"/>
                    </g>
                    <g transform="matrix(1,0,0,1,0,-1460.8)">
                        <rect x="65.587" y="1690.27" width="63.207" height="0.261" style="fill:white;"/>
                    </g>
                    <g transform="matrix(1,0,0,1,0,-1461.32)">
                        <rect x="65.587" y="1690.53" width="63.207" height="0.261" style="fill:white;"/>
                    </g>
                    <g transform="matrix(1,0,0,1,0,-1461.85)">
                        <rect x="65.587" y="1690.79" width="63.207" height="0.262" style="fill:white;"/>
                    </g>
                    <g transform="matrix(1,0,0,1,0,-1462.37)">
                        <rect x="65.587" y="1691.06" width="63.207" height="0.261" style="fill:white;"/>
                    </g>
                    <g transform="matrix(1,0,0,1,0,-1462.89)">
                        <rect x="65.587" y="1691.32" width="63.207" height="0.261" style="fill:white;"/>
                    </g>
                    <g transform="matrix(1,0,0,1,0,-1463.42)">
                        <rect x="65.587" y="1691.58" width="63.207" height="0.262" style="fill:white;"/>
                    </g>
                    <g transform="matrix(1,0,0,1,0,-1463.94)">
                        <rect x="65.587" y="1691.84" width="63.207" height="0.261" style="fill:white;"/>
                    </g>
                    <g transform="matrix(1,0,0,1,0,-1464.46)">
                        <rect x="65.587" y="1692.1" width="63.207" height="0.261" style="fill:white;"/>
                    </g>
                    <g transform="matrix(1,0,0,1,0,-1464.99)">
                        <rect x="65.587" y="1692.36" width="63.207" height="0.262" style="fill:white;"/>
                    </g>
                    <g transform="matrix(1,0,0,1,0,-1465.51)">
                        <rect x="65.587" y="1692.62" width="63.207" height="0.261" style="fill:white;"/>
                    </g>
                    <g transform="matrix(1,0,0,1,0,-1466.03)">
                        <rect x="65.587" y="1692.89" width="63.207" height="0.261" style="fill:white;"/>
                    </g>
                    <g transform="matrix(1,0,0,1,0,-1466.56)">
                        <rect x="65.587" y="1693.15" width="63.207" height="0.261" style="fill:white;"/>
                    </g>
                    <g transform="matrix(1,0,0,1,0,-1467.08)">
                        <rect x="65.587" y="1693.41" width="63.207" height="0.262" style="fill:white;"/>
                    </g>
                    <g transform="matrix(1,0,0,1,0,-1467.6)">
                        <rect x="65.587" y="1693.67" width="63.207" height="0.261" style="fill:white;"/>
                    </g>
                    <g transform="matrix(1,0,0,1,0,-1468.12)">
                        <rect x="65.587" y="1693.93" width="63.207" height="0.262" style="fill:white;"/>
                    </g>
                    <g transform="matrix(1,0,0,1,0,-1468.65)">
                        <rect x="65.587" y="1694.19" width="63.207" height="0.261" style="fill:white;"/>
                    </g>
                    <g transform="matrix(1,0,0,1,0,-1469.17)">
                        <rect x="65.587" y="1694.45" width="63.207" height="0.261" style="fill:white;"/>
                    </g>
                    <g transform="matrix(1,0,0,1,0,-1469.7)">
                        <rect x="65.587" y="1694.72" width="63.207" height="0.261" style="fill:white;"/>
                    </g>
                    <g transform="matrix(1,0,0,1,0,-1470.22)">
                        <rect x="65.587" y="1694.98" width="63.207" height="0.262" style="fill:white;"/>
                    </g>
                    <g transform="matrix(1,0,0,1,0,-1470.74)">
                        <rect x="65.587" y="1695.24" width="63.207" height="0.261" style="fill:white;"/>
                    </g>
                    <g transform="matrix(1,0,0,1,0,-1471.26)">
                        <rect x="65.587" y="1695.5" width="63.207" height="0.262" style="fill:white;"/>
                    </g>
                    <g transform="matrix(1,0,0,1,0,-1471.79)">
                        <rect x="65.587" y="1695.76" width="63.207" height="0.261" style="fill:white;"/>
                    </g>
                    <g transform="matrix(1,0,0,1,0,-1472.31)">
                        <rect x="65.587" y="1696.02" width="63.207" height="0.261" style="fill:white;"/>
                    </g>
                    <g transform="matrix(1,0,0,1,0,-1472.83)">
                        <rect x="65.587" y="1696.29" width="63.207" height="0.261" style="fill:white;"/>
                    </g>
                    <g transform="matrix(1,0,0,1,0,-1473.36)">
                        <rect x="65.587" y="1696.55" width="63.207" height="0.262" style="fill:white;"/>
                    </g>
                    <g transform="matrix(1,0,0,1,0,-1473.88)">
                        <rect x="65.587" y="1696.81" width="63.207" height="0.261" style="fill:white;"/>
                    </g>
                    <g transform="matrix(1,0,0,1,0,-1474.4)">
                        <rect x="65.587" y="1697.07" width="63.207" height="0.261" style="fill:white;"/>
                    </g>
                    <g transform="matrix(1,0,0,1,0,-1474.92)">
                        <rect x="65.587" y="1697.33" width="63.207" height="0.262" style="fill:white;"/>
                    </g>
                    <g transform="matrix(1,0,0,1,0,-1475.45)">
                        <rect x="65.587" y="1697.59" width="63.207" height="0.261" style="fill:white;"/>
                    </g>
                    <g transform="matrix(1,0,0,1,0,-1475.97)">
                        <rect x="65.587" y="1697.86" width="63.207" height="0.261" style="fill:white;"/>
                    </g>
                    <g transform="matrix(1,0,0,1,0,-1476.49)">
                        <rect x="65.587" y="1698.12" width="63.207" height="0.262" style="fill:white;"/>
                    </g>
                    <g transform="matrix(1,0,0,1,0,-1477.02)">
                        <rect x="65.587" y="1698.38" width="63.207" height="0.261" style="fill:white;"/>
                    </g>
                    <g transform="matrix(1,0,0,1,0,-1477.54)">
                        <rect x="65.587" y="1698.64" width="63.207" height="0.261" style="fill:white;"/>
                    </g>
                    <g transform="matrix(1,0,0,1,0,-1478.06)">
                        <rect x="65.587" y="1698.9" width="63.207" height="0.262" style="fill:white;"/>
                    </g>
                    <g transform="matrix(1,0,0,1,0,-1478.59)">
                        <rect x="65.587" y="1699.16" width="63.207" height="0.261" style="fill:white;"/>
                    </g>
                    <g transform="matrix(1,0,0,1,0,-1479.11)">
                        <rect x="65.587" y="1699.42" width="63.207" height="0.261" style="fill:white;"/>
                    </g>
                    <g transform="matrix(1,0,0,1,0,-1479.63)">
                        <rect x="65.587" y="1699.68" width="63.207" height="0.262" style="fill:white;"/>
                    </g>
                    <g transform="matrix(1,0,0,1,0,-1480.16)">
                        <rect x="65.587" y="1699.95" width="63.207" height="0.261" style="fill:white;"/>
                    </g>
                    <g transform="matrix(1,0,0,1,0,-1480.68)">
                        <rect x="65.587" y="1700.21" width="63.207" height="0.261" style="fill:white;"/>
                    </g>
                    <g transform="matrix(1,0,0,1,0,-1481.2)">
                        <rect x="65.587" y="1700.47" width="63.207" height="0.262" style="fill:white;"/>
                    </g>
                    <g transform="matrix(1,0,0,1,0,-1481.72)">
                        <rect x="65.587" y="1700.73" width="63.207" height="0.261" style="fill:white;"/>
                    </g>
                    <g transform="matrix(1,0,0,1,0,-1482.25)">
                        <rect x="65.587" y="1700.99" width="63.207" height="0.261" style="fill:white;"/>
                    </g>
                    <g transform="matrix(1,0,0,1,0,-1486.82)">
                        <rect x="65.587" y="1701.26" width="63.207" height="4.315" style="fill:white;"/>
                    </g>
                    <g transform="matrix(1,0,0,1,0,-1513.5)">
                        <rect x="65.587" y="1705.57" width="63.207" height="22.361" style="fill:white;"/>
                    </g>
                    <g transform="matrix(1,0,0,1,0,-1536.09)">
                        <rect x="65.587" y="1727.93" width="63.207" height="0.23" style="fill:white;"/>
                    </g>
                    <g transform="matrix(1,0,0,1,0,-1536.55)">
                        <rect x="65.587" y="1728.16" width="63.207" height="0.23" style="fill:white;"/>
                    </g>
                    <g transform="matrix(1,0,0,1,0,-1537.01)">
                        <rect x="65.587" y="1728.39" width="63.207" height="0.23" style="fill:white;"/>
                    </g>
                    <g transform="matrix(1,0,0,1,0,-1537.47)">
                        <rect x="65.587" y="1728.62" width="63.207" height="0.23" style="fill:white;"/>
                    </g>
                    <g transform="matrix(1,0,0,1,0,-1537.93)">
                        <rect x="65.587" y="1728.85" width="63.207" height="0.23" style="fill:white;"/>
                    </g>
                    <g transform="matrix(1,0,0,1,0,-1538.39)">
                        <rect x="65.587" y="1729.08" width="63.207" height="0.23" style="fill:white;"/>
                    </g>
                    <g transform="matrix(1,0,0,1,0,-1538.85)">
                        <rect x="65.587" y="1729.31" width="63.207" height="0.23" style="fill:white;"/>
                    </g>
                    <g transform="matrix(1,0,0,1,0,-1539.32)">
                        <rect x="65.587" y="1729.54" width="63.207" height="0.23" style="fill:white;"/>
                    </g>
                    <g transform="matrix(1,0,0,1,0,-1539.78)">
                        <rect x="65.587" y="1729.77" width="63.207" height="0.23" style="fill:white;"/>
                    </g>
                    <g transform="matrix(1,0,0,1,0,-1540.24)">
                        <rect x="65.587" y="1730" width="63.207" height="0.23" style="fill:white;"/>
                    </g>
                    <g transform="matrix(1,0,0,1,0,-1540.7)">
                        <rect x="65.587" y="1730.23" width="63.207" height="0.23" style="fill:white;"/>
                    </g>
                    <g transform="matrix(1,0,0,1,0,-1541.16)">
                        <rect x="65.587" y="1730.46" width="63.207" height="0.23" style="fill:white;"/>
                    </g>
                    <g transform="matrix(1,0,0,1,0,-1541.62)">
                        <rect x="65.587" y="1730.69" width="63.207" height="0.23" style="fill:white;"/>
                    </g>
                    <g transform="matrix(1,0,0,1,0,-1542.08)">
                        <rect x="65.587" y="1730.92" width="63.207" height="0.23" style="fill:white;"/>
                    </g>
                    <g transform="matrix(1,0,0,1,0,-1542.54)">
                        <rect x="65.587" y="1731.15" width="63.207" height="0.23" style="fill:white;"/>
                    </g>
                    <g transform="matrix(1,0,0,1,0,-1543)">
                        <rect x="65.587" y="1731.38" width="63.207" height="0.23" style="fill:white;"/>
                    </g>
                    <g transform="matrix(1,0,0,1,0,-1543.46)">
                        <rect x="65.587" y="1731.62" width="63.207" height="0.23" style="fill:white;"/>
                    </g>
                    <g transform="matrix(1,0,0,1,0,-1543.92)">
                        <rect x="65.587" y="1731.85" width="63.207" height="0.23" style="fill:white;"/>
                    </g>
                    <g transform="matrix(1,0,0,1,0,-1544.38)">
                        <rect x="65.587" y="1732.08" width="63.207" height="0.23" style="fill:white;"/>
                    </g>
                    <g transform="matrix(1,0,0,1,0,-1544.84)">
                        <rect x="65.587" y="1732.31" width="63.207" height="0.23" style="fill:white;"/>
                    </g>
                    <g transform="matrix(1,0,0,1,0,-1545.3)">
                        <rect x="65.587" y="1732.54" width="63.207" height="0.23" style="fill:white;"/>
                    </g>
                    <g transform="matrix(1,0,0,1,0,-1545.76)">
                        <rect x="65.587" y="1732.77" width="63.207" height="0.23" style="fill:white;"/>
                    </g>
                    <g transform="matrix(1,0,0,1,0,-1546.22)">
                        <rect x="65.587" y="1733" width="63.207" height="0.23" style="fill:white;"/>
                    </g>
                    <g transform="matrix(1,0,0,1,0,-1546.68)">
                        <rect x="65.587" y="1733.23" width="63.207" height="0.23" style="fill:white;"/>
                    </g>
                    <g transform="matrix(1,0,0,1,0,-1547.14)">
                        <rect x="65.587" y="1733.46" width="63.207" height="0.23" style="fill:white;"/>
                    </g>
                    <g transform="matrix(1,0,0,1,0,-1547.6)">
                        <rect x="65.587" y="1733.69" width="63.207" height="0.23" style="fill:white;"/>
                    </g>
                    <g transform="matrix(1,0,0,1,0,-1548.07)">
                        <rect x="65.587" y="1733.92" width="63.207" height="0.23" style="fill:white;"/>
                    </g>
                    <g transform="matrix(1,0,0,1,0,-1548.53)">
                        <rect x="65.587" y="1734.15" width="63.207" height="0.23" style="fill:white;"/>
                    </g>
                    <g transform="matrix(1,0,0,1,0,-1548.99)">
                        <rect x="65.587" y="1734.38" width="63.207" height="0.23" style="fill:white;"/>
                    </g>
                    <g transform="matrix(1,0,0,1,0,-1549.45)">
                        <rect x="65.587" y="1734.61" width="63.207" height="0.23" style="fill:white;"/>
                    </g>
                    <g transform="matrix(1,0,0,1,0,-1549.91)">
                        <rect x="65.587" y="1734.84" width="63.207" height="0.23" style="fill:white;"/>
                    </g>
                    <g transform="matrix(1,0,0,1,0,-1550.37)">
                        <rect x="65.587" y="1735.07" width="63.207" height="0.23" style="fill:white;"/>
                    </g>
                    <g transform="matrix(1,0,0,1,0,-1550.83)">
                        <rect x="65.587" y="1735.3" width="63.207" height="0.23" style="fill:white;"/>
                    </g>
                    <g transform="matrix(1,0,0,1,0,-1551.29)">
                        <rect x="65.587" y="1735.53" width="63.207" height="0.23" style="fill:white;"/>
                    </g>
                    <g transform="matrix(1,0,0,1,0,-1551.75)">
                        <rect x="65.587" y="1735.76" width="63.207" height="0.23" style="fill:white;"/>
                    </g>
                    <g transform="matrix(-1,0,0,1,194.381,-1552.18)">
                        <rect x="65.587" y="1735.99" width="63.207" height="0.195" style="fill:white;"/>
                    </g>
                </g>
            </g>
            <g transform="matrix(1,0,0,1,67.9413,210.998)">
                <path d="M0,6.721L0,25.539L54.813,-24.829L2.141,-24.829L14.623,-6.816L0,6.721ZM-4.708,36.257L-4.708,4.664L8.426,-7.494L-6.849,-29.536L66.893,-29.536L-4.708,36.257Z" style="fill:white;fill-rule:nonzero;"/>
            </g>
            <g transform="matrix(1,0,0,1,65.5873,183.815)">
                <path d="M0,58.081L0,32.876L13.878,20.029L0,0L63.207,0L0,58.081Z" style="fill:white;fill-rule:nonzero;"/>
            </g>
            <g transform="matrix(1,0,0,1,66.7644,210.009)">
                <path d="M0,7.196L0,29.207L59.009,-25.017L1.071,-25.017L14.251,-5.996L0,7.196ZM-2.354,34.566L-2.354,6.167L11.152,-6.335L-3.424,-27.37L65.05,-27.37L-2.354,34.566Z" style="fill-rule:nonzero;"/>
            </g>
            <g transform="matrix(1,0,0,1,65.2537,183.815)">
                <path d="M0,58.081L0,32.876L13.878,20.029L0,0L63.207,0L0,58.081Z" style="fill-rule:nonzero;"/>
            </g>
            <g transform="matrix(1,0,0,1,65.5479,209.267)">
                <path d="M0,7.552L0,31.958L62.157,-25.158L0.268,-25.158L13.971,-5.382L0,7.552ZM-0.589,33.298L-0.589,7.295L13.197,-5.467L-0.856,-25.746L63.668,-25.746L-0.589,33.298Z" style="fill:white;fill-rule:nonzero;"/>
            </g>
            <g transform="matrix(0,-72.1819,-72.1819,0,97.1913,242.283)">
                <path d="M0.81,0.438L0.533,0.246L0.355,0.438L0.005,0.438L0.81,-0.438L0.81,0.438Z" style="fill:url(#_Linear2);fill-rule:nonzero;"/>
            </g>
            <g transform="matrix(27.2616,39.3413,39.3413,-27.2616,91.9122,177.662)">
                <path d="M-0.208,-0.525L0.179,-0.525L0.569,0.386L0.545,0.56L-0.208,-0.525Z" style="fill:url(#_Linear3);fill-rule:nonzero;"/>
            </g>
            <g transform="matrix(-0.979761,0.200172,0.200172,0.979761,68.8841,222.121)">
                <path d="M-59.15,-21.197L-11.711,-21.197L-14.025,-15.79L2.143,-5.981L-59.15,-21.197Z" style="fill:rgb(145,29,34);fill-rule:nonzero;"/>
            </g>
            <g transform="matrix(1,0,0,1,168.578,191.865)">
                <path d="M0,20.619L-25.012,20.619L-22.256,15.222L3.008,15.222L8.661,5.397L-16.956,5.397L-13.816,-0.453L12.056,-0.453L17.364,-9.974L-8.853,-9.974L-24.652,-9.974L-26.591,-9.974L-50.047,30.593L-5.641,30.593L0,20.619Z" style="fill:white;fill-rule:nonzero;"/>
            </g>
            <g transform="matrix(1,0,0,1,196.859,204.172)">
                <path d="M0,-3.995L6.58,-16.586L7.221,-3.995L0,-3.995ZM20.453,-22.281L-6.688,-22.281L-30.367,18.286L-11.643,18.286L-5.053,5.675L7.714,5.675L7.771,6.79L8.356,18.286L22.528,18.286L20.453,-22.281Z" style="fill:white;fill-rule:nonzero;"/>
            </g>
            <g transform="matrix(1,0,0,1,293.639,204.172)">
                <path d="M0,-3.995L6.264,-16.586L7.221,-3.995L0,-3.995ZM19.995,-22.281L-7.146,-22.281L-29.81,18.286L-11.086,18.286L-4.811,5.675L7.956,5.675L8.04,6.79L8.914,18.286L23.086,18.286L19.995,-22.281Z" style="fill:white;fill-rule:nonzero;"/>
            </g>
            <g transform="matrix(1,0,0,1,249.31,191.365)">
                <path d="M0,22.004C-0.3,22.596 -0.894,23.011 -1.6,23.02L-8.988,23.02C-9.644,23.016 -10.174,22.485 -10.174,21.828C-10.174,21.726 -10.161,21.626 -10.137,21.532C-10.126,21.49 -10.161,21.484 -10.184,21.469L-4.749,1.008C-4.455,0.382 -3.84,-0.062 -3.104,-0.062L4.582,-0.062C5.129,-0.062 5.59,0.306 5.731,0.807C5.76,0.91 5.776,1.019 5.776,1.132C5.776,1.267 5.753,1.397 5.711,1.519C5.711,1.521 5.715,1.519 5.714,1.521L5.293,3.09C5.292,3.092 1.127,17.975 0,22.004M16.023,-9.43L-18.421,-9.43L-28.03,31.131L7.961,31.131C7.961,31.131 13.338,31.434 15.415,24.007C17.611,17.496 21.903,-0.875 21.903,-0.875C22.935,-5.622 21.071,-9.43 16.023,-9.43" style="fill:white;fill-rule:nonzero;"/>
            </g>
        </g>
    </g>
    <defs>
        <linearGradient id="_Linear2" x1="0" y1="0" x2="1" y2="0" gradientUnits="userSpaceOnUse" gradientTransform="matrix(1,0,0,-1,0,9.03828e-06)"><stop offset="0" style="stop-color:rgb(230,33,24);stop-opacity:1"/><stop offset="0.33" style="stop-color:rgb(173,30,36);stop-opacity:1"/><stop offset="0.39" style="stop-color:rgb(173,30,36);stop-opacity:1"/><stop offset="0.7" style="stop-color:rgb(173,30,36);stop-opacity:1"/><stop offset="0.98" style="stop-color:rgb(230,33,24);stop-opacity:1"/><stop offset="1" style="stop-color:rgb(230,33,24);stop-opacity:1"/></linearGradient>
        <linearGradient id="_Linear3" x1="0" y1="0" x2="1" y2="0" gradientUnits="userSpaceOnUse" gradientTransform="matrix(-0.921651,0.38802,0.38802,0.921651,0.403279,-0.0814301)"><stop offset="0" style="stop-color:white;stop-opacity:1"/><stop offset="0.03" style="stop-color:rgb(215,107,102);stop-opacity:1"/><stop offset="0.18" style="stop-color:rgb(194,42,34);stop-opacity:1"/><stop offset="0.74" style="stop-color:rgb(176,31,35);stop-opacity:1"/><stop offset="0.8" style="stop-color:rgb(176,31,35);stop-opacity:1"/><stop offset="1" style="stop-color:rgb(174,30,36);stop-opacity:1"/></linearGradient>
    </defs>
</svg>
