<?xml version="1.0" encoding="UTF-8" standalone="no"?>
<!DOCTYPE svg PUBLIC "-//W3C//DTD SVG 1.1//EN" "http://www.w3.org/Graphics/SVG/1.1/DTD/svg11.dtd">
<svg width="100%" height="100%" viewBox="0 0 1228 256" version="1.1" xmlns="http://www.w3.org/2000/svg" xmlns:xlink="http://www.w3.org/1999/xlink" xml:space="preserve" xmlns:serif="http://www.serif.com/" style="fill-rule:evenodd;clip-rule:evenodd;stroke-linejoin:round;stroke-miterlimit:2;">
    <g transform="matrix(1,0,0,1,-9136.17,-7451.57)">
        <g transform="matrix(5.55556,0,0,5.55556,6750,0)">
            <g transform="matrix(1,0,0,1,532.692,1386.57)">
                <path d="M0,-45.193L-5.057,-34.531L6.707,-34.531L5.699,-30.881L-2.552,-30.881L1.513,-6.435L-8.839,-6.435L-11.109,-21.66L-18.289,-6.435L-29.67,-6.435L-18.163,-30.881L-22.678,-30.881L-21.67,-34.531L-16.436,-34.531L-11.428,-45.193L0,-45.193ZM-22.039,-45.193L-23.699,-36.74L-35.078,-36.74L-33.417,-45.193L-22.039,-45.193ZM-38.566,-34.195L-22.817,-34.195L-30.208,-20.651L-26.512,-20.651L-34.281,-3.651L2.107,-3.651L1.099,0L-47.099,0L-39.781,-15.368L-43.334,-15.368L-35.697,-30.161L-39.682,-30.161L-38.566,-34.195Z" style="fill:rgb(245,245,243);fill-rule:nonzero;"/>
            </g>
            <g transform="matrix(1,0,0,1,558.954,1381.82)">
                <path d="M0,-35.492L9.025,-35.492L8.017,-31.841L-1.537,-31.841L-7.374,-18.01L-4.859,-18.01L-2.364,-27.039L3.733,-27.039L1.24,-18.01L4.199,-18.01L3.177,-14.312L-0.808,-14.312L-2.428,-8.453L1.46,-8.789L0.385,-4.899L-3.501,-4.562L-6.154,5.043L-16.288,5.043L-13.833,-3.842L-21.113,-3.218L-20.039,-7.108L-12.76,-7.732L-10.942,-14.312L-18.144,-14.312L-10.759,-31.841L-13.208,-31.841L-12.2,-35.492L-9.223,-35.492L-7.11,-40.535L2.112,-40.535L0,-35.492Z" style="fill:rgb(245,245,243);fill-rule:nonzero;"/>
            </g>
            <g transform="matrix(1,0,0,1,577.524,1386.86)">
                <path d="M0,-23.582L-2.268,-15.369L11.312,-18.538L10.304,-14.888L-3.289,-11.671L-5.517,-4.116L8.599,-4.116L6.577,0L-17.14,0L-10.628,-23.582L0,-23.582Z" style="fill:rgb(245,245,243);fill-rule:nonzero;"/>
            </g>
            <g transform="matrix(1,0,0,1,580.798,1351.17)">
                <path d="M0,0.385L-5.901,10.278L-15.648,10.278L-3.115,-9.893L8.936,-9.893L10.698,10.278L1.048,10.278L0,0.385Z" style="fill:rgb(245,245,243);fill-rule:nonzero;"/>
            </g>
            <g transform="matrix(1,0,0,1,641.512,1357.66)">
                <path d="M0,-10.855L-1.189,0.577C-1.22,0.864 -1.313,1.201 -1.524,1.44C-1.734,1.68 -2.015,1.825 -2.253,1.825L-8.016,1.825L0.791,-16.329L-8.332,-16.329L-18.866,5.474L7.515,5.474L8.978,-10.855L0,-10.855Z" style="fill:rgb(245,245,243);fill-rule:nonzero;"/>
            </g>
            <g transform="matrix(1,0,0,1,635.297,1370.92)">
                <path d="M0,10.902C-0.211,11.67 -0.961,12.296 -1.729,12.296L-8.199,12.296L-4.419,-1.393L3.395,-1.393L0,10.902ZM-12.583,-5.043L-18.379,15.945L8.752,15.945L13.574,-5.043L-12.583,-5.043Z" style="fill:rgb(245,245,243);fill-rule:nonzero;"/>
            </g>
            <g transform="matrix(1,0,0,1,613.13,1373.46)">
                <path d="M0,-18.203L-5.544,-18.203L-2.799,-28.145L2.745,-28.145L0,-18.203ZM-3.74,-4.659L-9.284,-4.659L-6.553,-14.552L-1.008,-14.552L-3.74,-4.659ZM-11.258,-31.602L-23.687,13.399L-14.786,13.399L-10.292,-1.009L-4.748,-1.009L-7.416,8.645C-7.418,8.652 -7.424,8.657 -7.425,8.665L-7.595,9.257L-9.506,9.284L-11.527,13.399L-2.959,13.399C-0.653,13.399 1.838,11.333 2.513,8.884L13.696,-31.602L-11.258,-31.602Z" style="fill:rgb(245,245,243);fill-rule:nonzero;"/>
            </g>
            <g transform="matrix(1,0,0,1,459.232,1365.39)">
                <path d="M0,-2.016L-2.515,-2.016L3.387,-23.388L-22.162,-23.388L-23.17,-19.738L-6.004,-19.738L-10.898,-2.016L-17.933,-2.016L-14.047,-16.088L-21.264,-16.088L-26.185,1.73L-10.348,1.73L-14.355,16.234C-14.554,16.954 -15.303,17.578 -16.069,17.578L-25.411,17.578L-27.471,21.372L-12.302,21.372C-12.178,21.372 -12.054,21.345 -11.93,21.335L-11.967,21.372L-6.418,21.372L0,-2.016Z" style="fill:rgb(245,245,243);fill-rule:nonzero;"/>
            </g>
            <g transform="matrix(-1,0,0,1,429.51,1376.68)">
                <path d="M-15.98,-3.699L-1.021,-3.699L0,0L-14.959,0L-15.98,-3.699Z" style="fill:rgb(245,245,243);fill-rule:nonzero;"/>
            </g>
            <g transform="matrix(1,0,0,1,479.614,1387.24)">
                <path d="M0,-23.561L-10.535,-23.561L-11.536,-19.824L-18.074,-19.824L-19.118,-15.933L-12.582,-15.933L-14.224,-9.808L-22.072,-9.808L-23.144,-5.812L-15.297,-5.812L-16.856,0L-6.321,0L-4.762,-5.812L2.985,-5.812L4.058,-9.808L-3.69,-9.808L-2.045,-15.933L4.49,-15.933L5.536,-19.824L-1.002,-19.824L0,-23.561Z" style="fill:rgb(245,245,243);fill-rule:nonzero;"/>
            </g>
            <g transform="matrix(1,0,0,1,490.757,1362.44)">
                <path d="M0,-20.536L-24.846,-20.536L-25.749,-17.453L-8.728,-17.453L-14.413,-12.974L-16.525,-15.937L-25.506,-15.937L-20.016,-8.099L-29.536,0L-19.79,0L-16.337,-2.869L-14.297,0L-5.244,0L-10.593,-7.524L-1.658,-14.869L0,-20.536Z" style="fill:rgb(245,245,243);fill-rule:nonzero;"/>
            </g>
        </g>
    </g>
</svg>
